<svg id="Layer_1" data-name="Layer 1" xmlns="http://www.w3.org/2000/svg" viewBox="0 0 301.42 344.43"><defs><style>.cls-1{fill:#3f9b59;}</style></defs><path class="cls-1" d="M294.3,331.44c-2.24,5-4,8.75-5.55,12.52q-23.88,56.79-47.7,113.61c-4.09,9.78-7.19,12-17.67,12-9.67,0-19.34,0-29,0-13.29-.07-19.72-9.73-14.52-21.9Q211,374.7,242.26,301.79q9-21.1,18-42.25c4.17-9.83,8.29-12.57,19.12-12.57,10.5,0,21,.15,31.5-.05,8-.15,13.23,3.52,16.3,10.72q30.92,72.51,61.84,145,26.5,62.19,52.95,124.41c3.36,7.89,2.33,14.27-4.2,18.59a24.15,24.15,0,0,1-12.62,3.45c-48.66.25-97.32.18-146,.18q-58.49,0-117,0c-9.59,0-14.47-2.74-17-10.11a12.77,12.77,0,0,1-.16-8.12c4.23-10.84,8.9-21.5,13.57-32.16,2.11-4.83,6.1-7.39,11.31-7.88,2.81-.26,5.65-.32,8.48-.32H361C338.71,437.45,316.84,385.26,294.3,331.44Z" transform="translate(-142.38 -246.92)"/><path d="M222.38,585.07c1.05-2.34,1.05-2.34,14.58-3.71l-4.12-10.1c-3.45,2.2-1.6,8.78-8.54,8.41,2.06-4.88,3.73-9.32,5.92-13.48.3-.57,4.34-.31,4.75.51,2.86,5.78,5.22,11.79,8,18.37Z" transform="translate(-142.38 -246.92)"/><path d="M264.26,578.32c1.25,2.09,2.51,4.17,3.77,6.26l-.69,1.14c-1.4-.59-3-.92-4.13-1.85s-1.41-2.77-2.52-3.63a9.21,9.21,0,0,0-4.62-1.81c-.46,0-1.09,2.24-1.71,3.41s-1.42,2.42-2.13,3.62c-.65-1.3-1.79-2.57-1.87-3.9-.43-7-.34-7,6.77-7.1.83,0,1.82.27,2.46-.09a37.26,37.26,0,0,0,4-2.84c-1.33-.93-2.54-2.31-4-2.68-1.88-.47-4,.13-5.94-.22-1.15-.2-2.13-1.33-3.2-2,1-.57,2-1.46,3-1.65a37.33,37.33,0,0,1,5-.09c3.47-.14,7.37.08,8.3,3.83.71,2.84-.63,6.19-1.06,9.31Z" transform="translate(-142.38 -246.92)"/><path d="M362,572.05l-6.27,7.17c-3.46-4.57-6.69-8.86-10-13.28,3.46-1.06,3.46-1.06,10.28,6.93a45.47,45.47,0,0,1,4.24-5.46c1.32-1.28,3.16-2,5.75-3.62,0,7.32.09,13.13-.09,18.93,0,.93-1.28,1.82-2,2.73-.64-.94-1.75-1.84-1.83-2.83C361.85,579.66,362,576.67,362,572.05Z" transform="translate(-142.38 -246.92)"/><path d="M321.84,564.1V585c-4,.3-12.94-9.82-17.83-20.35,7.89,1.06,8.48,9,13.32,12.35C320.35,573.76,315.08,567.35,321.84,564.1Z" transform="translate(-142.38 -246.92)"/><path d="M286.76,585.6c-.07-1.07-.51-2.56-.14-2.81,5.27-3.49,3.17-8.85,3.75-13.56.18-1.49,1.26-2.87,1.93-4.3.69,1.38,1.9,2.73,2,4.13a45.06,45.06,0,0,1-.41,10.39C293.22,582.89,290.91,585.22,286.76,585.6Z" transform="translate(-142.38 -246.92)"/><path d="M282.42,586.44c-1.86-2.4-4.62-4.55-5.34-7.24-1-3.89-.68-8.17-.66-12.28,0-.67,1.26-1.58,2.11-1.88.35-.12,1.59,1.06,1.68,1.75a53.29,53.29,0,0,1,.17,5.94c.06,3.42-.53,7,3.16,9.31.67.43.48,2.21.69,3.37Z" transform="translate(-142.38 -246.92)"/><path d="M332,578.67a10.55,10.55,0,0,1,.07-3,11.42,11.42,0,0,1,1.67-2.57c.75.87,2,1.66,2.13,2.61a27.1,27.1,0,0,1,0,7c-.12,1-1.27,1.84-1.95,2.75-.64-.93-1.59-1.78-1.85-2.8A16,16,0,0,1,332,578.67Z" transform="translate(-142.38 -246.92)"/><path d="M337.33,568.29l-3.6,3.48c-.58-1.15-1.6-2.29-1.61-3.44s1-2.28,1.6-3.42Z" transform="translate(-142.38 -246.92)"/><path d="M303.16,581.72l3.1-3.11c.57,1.13,1.68,2.32,1.57,3.38-.12,1.22-1.33,2.32-2.06,3.48Z" transform="translate(-142.38 -246.92)"/><path d="M345,582.15l2.6-3.5c.75,1,2.13,2.09,2.08,3.07-.06,1.28-1.27,2.5-2,3.74Z" transform="translate(-142.38 -246.92)"/><rect class="cls-1" y="341.43" width="72.94" height="3"/><rect class="cls-1" x="228.48" y="341.43" width="72.94" height="3"/></svg>